HIERARCHY
ROOT SpineBase
{
  OFFSET 0.000000 0.000000 0.000000
  CHANNELS 6 Xposition Yposition Zposition Zrotation Xrotation Yrotation
  JOINT SpineMid
  {
    OFFSET -0.000000 29.948452 0.000000
    CHANNELS 3 Zrotation Xrotation Yrotation
    JOINT SpineShoulder
    {
      OFFSET -0.167594 22.263357 -0.732011
      CHANNELS 3 Zrotation Xrotation Yrotation
      JOINT Neck
      {
        OFFSET -0.079009 7.366842 -0.560639
        CHANNELS 3 Zrotation Xrotation Yrotation
        JOINT Head
        {
          OFFSET 1.531666 14.043530 -3.115970
          CHANNELS 3 Zrotation Xrotation Yrotation
          End Site
          {
            OFFSET 0 0 0
          }
        }
      }
      JOINT ShoulderLeft
      {
        OFFSET -17.111416 -2.238088 -1.802953
        CHANNELS 3 Zrotation Xrotation Yrotation
        JOINT ElbowLeft
        {
          OFFSET -3.122835 -24.921456 -1.804389
          CHANNELS 3 Zrotation Xrotation Yrotation
          JOINT WristLeft
          {
            OFFSET 0.728670 -18.489646 -6.199574
            CHANNELS 3 Zrotation Xrotation Yrotation
            JOINT HandLeft
            {
              OFFSET 1.453856 -6.287998 -1.740047
              CHANNELS 3 Zrotation Xrotation Yrotation
              JOINT HandTipLeft
              {
                OFFSET 0.706029 -6.119449 -1.035493
                CHANNELS 3 Zrotation Xrotation Yrotation
                End Site
                {
                  OFFSET 0 0 0
                }
              }
              JOINT ThumbLeft
              {
                OFFSET -3.388876 -0.487315 -1.483667
                CHANNELS 3 Zrotation Xrotation Yrotation
                End Site
                {
                  OFFSET 0 0 0
                }
              }
            }
          }
        }
      }
      JOINT ShoulderRight
      {
        OFFSET 17.212540 -2.570498 1.290328
        CHANNELS 3 Zrotation Xrotation Yrotation
        JOINT ElbowRight
        {
          OFFSET 2.742115 -25.316288 0.001306
          CHANNELS 3 Zrotation Xrotation Yrotation
          JOINT WristRight
          {
            OFFSET 0.786499 -18.387677 -5.494081
            CHANNELS 3 Zrotation Xrotation Yrotation
            JOINT HandRight
            {
              OFFSET -0.308792 -6.205793 -2.088383
              CHANNELS 3 Zrotation Xrotation Yrotation
              JOINT HandTipRight
              {
                OFFSET 1.281134 -4.562727 -1.790316
                CHANNELS 3 Zrotation Xrotation Yrotation
                End Site
                {
                  OFFSET 0 0 0
                }
              }
              JOINT ThumbRight
              {
                OFFSET -3.041143 0.771054 0.136988
                CHANNELS 3 Zrotation Xrotation Yrotation
                End Site
                {
                  OFFSET 0 0 0
                }
              }
            }
          }
        }
      }
    }
  }
  JOINT HipLeft
  {
    OFFSET -6.375255 0.897665 -4.013907
    CHANNELS 3 Zrotation Xrotation Yrotation
    JOINT KneeLeft
    {
      OFFSET -6.954759 -24.895051 -0.266433
      CHANNELS 3 Zrotation Xrotation Yrotation
      JOINT AnkleLeft
      {
        OFFSET -3.013343 -31.833199 3.761689
        CHANNELS 3 Zrotation Xrotation Yrotation
        JOINT FootLeft
        {
          OFFSET -0.610624 -6.620535 -6.277497
          CHANNELS 3 Zrotation Xrotation Yrotation
          End Site
          {
            OFFSET 0 0 0
          }
        }
      }
    }
  }
  JOINT HipRight
  {
    OFFSET 6.266284 0.388082 -3.110955
    CHANNELS 3 Zrotation Xrotation Yrotation
    JOINT KneeRight
    {
      OFFSET 3.453451 -26.528858 3.984683
      CHANNELS 3 Zrotation Xrotation Yrotation
      JOINT AnkleRight
      {
        OFFSET 4.058828 -29.716276 10.272516
        CHANNELS 3 Zrotation Xrotation Yrotation
        JOINT FootRight
        {
          OFFSET 3.069519 -7.668464 -5.213084
          CHANNELS 3 Zrotation Xrotation Yrotation
          End Site
          {
            OFFSET 0 0 0
          }
        }
      }
    }
  }
}
MOTION
Frames: 9
Frame Time: 0.033333
4.220816 63.910981 391.031724 2.653422 -0.490169 -7.709202 -0.340788 0.097444 7.792877 -0.054666 0.041981 0.095124 -6.867423 3.050718 -1.348357 0.000000 0.000000 0.000000 -3.951473 0.070137 -0.005713 8.966455 -5.842112 -2.526950 -5.402785 1.940563 1.508970 2.618253 3.005788 0.346903 0.000000 0.000000 0.000000 0.000000 0.000000 0.000000 -2.273139 0.312713 -0.163526 -0.627335 2.154533 0.289847 -15.115376 -7.679350 3.997799 6.533408 -8.183915 -7.117455 0.000000 0.000000 0.000000 0.000000 0.000000 0.000000 -3.544495 0.719875 7.543047 2.053611 -2.197386 0.518063 -1.730816 -2.106454 0.492259 0.000000 0.000000 0.000000 -1.098397 0.588186 7.991365 -1.645061 -0.232142 -0.281100 0.945027 -0.929017 -1.008867 0.000000 0.000000 0.000000
4.566658 63.875249 390.893776 2.578601 -0.060640 -7.922797 -0.646636 0.166219 7.985650 -0.147495 0.267358 0.072549 -7.776646 4.428106 -1.807866 0.000000 0.000000 0.000000 -7.524016 1.857215 0.044447 15.392431 -15.125375 -2.353988 -8.053116 7.390257 2.838038 2.499064 1.883444 0.392006 0.000000 0.000000 0.000000 0.000000 0.000000 0.000000 -1.774676 1.179296 0.026693 -0.434367 1.266073 0.063716 -13.890366 -6.302680 3.613676 5.602339 -11.322501 -7.199811 0.000000 0.000000 0.000000 0.000000 0.000000 0.000000 -3.375131 0.785753 7.598187 1.400398 -2.737216 0.588578 -0.763612 2.832730 -0.293905 0.000000 0.000000 0.000000 -0.500485 0.634500 8.319732 -2.993050 -0.662362 -0.718633 1.642508 -0.115034 -0.337777 0.000000 0.000000 0.000000
5.049786 63.829170 390.654618 2.041596 1.013284 -8.569719 -1.108203 0.589005 8.582367 0.013944 0.263604 0.052057 -8.938966 5.478363 -2.474292 0.000000 0.000000 0.000000 -11.502797 3.160624 0.094258 20.398475 -18.184957 -1.454688 -7.003162 6.076660 2.065126 2.539571 5.060859 0.826693 0.000000 0.000000 0.000000 0.000000 0.000000 0.000000 -1.459637 1.316839 0.239262 -0.209540 0.944851 0.005134 -11.489817 -6.544482 2.692234 4.386173 -11.351237 -6.264476 0.000000 0.000000 0.000000 0.000000 0.000000 0.000000 -2.591418 -0.001266 8.137942 0.636447 -3.079784 0.565235 -0.199950 6.298807 -0.457618 0.000000 0.000000 0.000000 0.489052 -0.028042 9.054555 -4.062448 -1.309763 -1.134025 2.211329 1.328895 0.449346 0.000000 0.000000 0.000000
5.663295 63.748689 390.342488 1.567200 2.404488 -9.755057 -1.403099 1.054189 9.731942 0.097949 0.230399 0.039652 -11.308478 6.933498 -3.450945 0.000000 0.000000 0.000000 -17.358297 8.158747 0.257227 29.362159 -22.988153 1.471472 -8.063919 3.031704 2.153070 3.060040 9.269590 1.065460 0.000000 0.000000 0.000000 0.000000 0.000000 0.000000 -0.567443 1.156536 0.453845 -1.101669 1.072385 0.032177 -8.369826 -5.589110 1.632140 1.279032 -12.035944 -4.382202 0.000000 0.000000 0.000000 0.000000 0.000000 0.000000 -1.823352 -1.433645 9.314297 -0.107984 -3.238633 0.451859 0.237427 8.813022 -0.349010 0.000000 0.000000 0.000000 1.184645 -1.160885 10.291358 -4.747151 -1.823405 -1.464542 2.730936 2.519559 1.109079 0.000000 0.000000 0.000000
6.336497 63.651437 389.984450 0.512347 4.271864 -11.242511 -1.815062 1.506972 11.197426 0.440451 0.010568 0.034548 -13.329586 8.140315 -4.487943 0.000000 0.000000 0.000000 -24.109049 13.878320 0.989896 35.502872 -22.080460 5.450949 1.222620 -11.147792 -2.147733 -6.469727 20.871141 6.075467 0.000000 0.000000 0.000000 0.000000 0.000000 0.000000 -0.360433 1.133595 0.751356 -0.419219 1.475225 -0.040050 -6.758404 -7.517625 0.810777 2.124494 -8.004258 -2.776787 0.000000 0.000000 0.000000 0.000000 0.000000 0.000000 -0.278971 -3.495480 10.948730 -0.881999 -3.195370 0.260881 0.581562 10.317174 -0.020854 0.000000 0.000000 0.000000 2.415508 -2.809060 11.850350 -5.166609 -2.169537 -1.718280 3.222729 3.247747 1.566013 0.000000 0.000000 0.000000
7.073523 63.536176 389.681922 -0.908586 6.410018 -12.914251 -2.025338 1.734538 12.906288 0.757531 -0.170559 0.029403 -15.439276 10.008663 -5.596234 0.000000 0.000000 0.000000 -30.326409 20.002936 2.291382 40.124381 -16.807884 9.791564 14.585011 -34.319624 -2.242485 -41.333044 47.497148 30.775980 0.000000 0.000000 0.000000 0.000000 0.000000 0.000000 -0.562745 1.093539 1.054090 0.794522 1.196815 -0.061921 -5.401228 -7.376615 0.267211 1.929433 -6.607054 -1.434055 0.000000 0.000000 0.000000 0.000000 0.000000 0.000000 2.328565 -6.042211 13.088042 -2.038841 -2.732781 -0.030716 0.903119 10.762310 0.377371 0.000000 0.000000 0.000000 3.856881 -4.698240 13.624593 -5.131202 -2.457769 -1.865482 3.585489 3.526701 1.822939 0.000000 0.000000 0.000000
7.792379 63.408451 389.412087 -2.359800 8.513456 -14.404922 -1.951502 1.712861 14.500085 0.991251 -0.316602 0.025949 -17.625797 12.212056 -6.612649 0.000000 0.000000 0.000000 -42.361646 27.521256 6.071764 2.878216 32.358830 29.487148 140.758232 -25.799772 84.860063 -165.585611 26.959681 92.711781 0.000000 0.000000 0.000000 0.000000 0.000000 0.000000 -0.988442 0.982857 1.282885 2.327743 1.859142 -0.001095 -4.087651 -8.139167 -0.287903 -0.533510 -6.602254 -0.072289 0.000000 0.000000 0.000000 0.000000 0.000000 0.000000 4.437138 -7.644302 14.877174 -2.736846 -3.068056 -0.105712 0.935416 10.493219 1.116866 0.000000 0.000000 0.000000 5.451645 -6.307027 15.332693 -5.256649 -2.825496 -2.079652 4.260972 4.167924 2.089516 0.000000 0.000000 0.000000
8.442395 63.286506 389.246170 -3.928920 10.439804 -15.811566 -1.830591 1.593248 16.067439 0.983629 -0.318424 -0.019157 -19.118526 14.336483 -7.427270 0.000000 0.000000 0.000000 -48.413682 30.283146 8.198647 -27.546253 37.041269 50.350783 30.206112 67.850190 96.371627 -61.916083 43.857654 -101.320779 0.000000 0.000000 0.000000 0.000000 0.000000 0.000000 -1.396874 0.489418 1.452628 4.536174 2.075748 0.064690 -2.153662 -7.101869 -0.740487 -2.437216 -5.562377 1.670662 0.000000 0.000000 0.000000 0.000000 0.000000 0.000000 5.926951 -10.013193 16.806894 -2.401161 -2.574529 -0.381451 -0.931341 5.641529 4.144517 0.000000 0.000000 0.000000 7.195882 -7.517425 17.056169 -5.368259 -3.267327 -2.302231 4.726194 4.306579 2.277231 0.000000 0.000000 0.000000
8.954104 63.150373 389.192016 -5.352102 11.976568 -17.362488 -1.567910 1.253535 17.794506 0.786975 -0.223352 -0.094145 -20.926752 16.252321 -8.101876 0.000000 0.000000 0.000000 -48.262498 29.565083 7.790465 -32.020404 34.707708 51.898976 -22.647562 31.205034 48.537059 -14.651631 -27.842460 -59.656335 0.000000 0.000000 0.000000 0.000000 0.000000 0.000000 -1.592837 -0.698176 1.450549 6.943600 2.100182 0.073869 -1.449879 -3.878951 -0.926960 -5.634578 -6.876733 3.043525 0.000000 0.000000 0.000000 0.000000 0.000000 0.000000 8.107993 -11.366442 18.929127 -3.182380 -2.400079 -0.589438 2.271298 7.028337 1.783223 0.000000 0.000000 0.000000 8.692687 -7.951993 18.958945 -5.271733 -3.988505 -2.501742 4.814291 4.670120 2.586839 0.000000 0.000000 0.000000
